<?xml version="1.0" encoding="utf-8"?>
<!-- Generator: Adobe Illustrator 23.0.3, SVG Export Plug-In . SVG Version: 6.00 Build 0)  -->
<svg version="1.1" id="Шар_1" xmlns="http://www.w3.org/2000/svg" xmlns:xlink="http://www.w3.org/1999/xlink" x="0px" y="0px"
	 viewBox="0 0 263 34.4" style="enable-background:new 0 0 263 34.4;" xml:space="preserve">
<style type="text/css">
	.st0{fill:#FF1D1D;}
</style>
<g>
	<path class="st0" d="M169.1,4.3c0.9,0,1.7,0,2.6,0c0.2-0.1,0.4-0.3,0.5-0.4c0.2-0.1,0.4-0.3,0.5-0.4c0.2-0.1,0.4-0.3,0.5-0.4
		c0.2-0.1,0.3-0.3,0.5-0.5c-0.9,0-1.7,0-2.6,0c-0.3,0.2-0.5,0.4-0.7,0.5c-0.4,0.3-0.8,0.6-1.2,0.9C169.2,4.2,169.1,4.2,169.1,4.3z"
		/>
	<path class="st0" d="M173.2,4.4c0.7,0,1.4,0,2.1,0c0,0,0.1,0,0.2-0.1c0.2-0.2,0.4-0.3,0.7-0.5c0.3-0.2,0.5-0.4,0.8-0.6
		c0.2-0.2,0.4-0.3,0.7-0.5c-0.8,0-1.6,0-2.3,0C174.6,3.2,173.9,3.8,173.2,4.4C173.2,4.3,173.2,4.4,173.2,4.4z"/>
	<path class="st0" d="M179.1,4.3c0.7-0.5,1.4-1.1,2.2-1.6c0,0,0,0,0,0c-0.6,0-1.1,0-1.7,0c-0.1,0-0.1,0-0.2,0.1
		c-0.3,0.2-0.5,0.4-0.8,0.6c-0.3,0.2-0.5,0.4-0.8,0.6c-0.1,0.1-0.3,0.2-0.5,0.4C177.9,4.3,178.5,4.3,179.1,4.3z"/>
	<path class="st0" d="M183.3,4.1c0.1-0.1,0.2-0.2,0.4-0.3c0.1-0.1,0.2-0.2,0.4-0.3c0.1-0.1,0.2-0.2,0.3-0.3c0.1-0.1,0.3-0.2,0.4-0.3
		c0.1-0.1,0.2-0.2,0.4-0.3c-0.5,0-1,0-1.5,0c-0.2,0.1-0.4,0.3-0.5,0.4c-0.2,0.1-0.4,0.3-0.5,0.4c-0.2,0.1-0.3,0.3-0.5,0.4
		c-0.2,0.1-0.3,0.3-0.5,0.5c0.5,0,1,0,1.5,0C183,4.3,183.2,4.2,183.3,4.1z"/>
	<path class="st0" d="M76.4,3.5c0.2,0.1,0.4,0.3,0.5,0.4c0.2,0.1,0.4,0.3,0.5,0.4c0.8,0,1.7,0,2.6,0c-0.1-0.1-0.1-0.2-0.2-0.2
		c-0.4-0.3-0.8-0.6-1.2-0.9c-0.2-0.2-0.5-0.4-0.7-0.5c-0.9,0-1.7,0-2.6,0c0.2,0.2,0.4,0.3,0.5,0.5C76,3.2,76.2,3.4,76.4,3.5z"/>
	<path class="st0" d="M73,3.8c0.2,0.2,0.4,0.3,0.7,0.5c0,0,0.1,0.1,0.2,0.1c0.7,0,1.4,0,2.1,0c0,0,0,0,0.1,0
		c-0.7-0.5-1.4-1.1-2.1-1.6c-0.7,0-1.5,0-2.3,0C71.8,2.9,72,3,72.2,3.2C72.5,3.4,72.7,3.6,73,3.8z"/>
	<path class="st0" d="M71.8,4.3c-0.2-0.2-0.3-0.3-0.5-0.4c-0.3-0.2-0.5-0.4-0.8-0.6c-0.3-0.2-0.5-0.4-0.8-0.6
		c-0.1,0-0.1-0.1-0.2-0.1c-0.6,0-1.1,0-1.7,0c0,0,0,0,0,0c0.7,0.5,1.4,1.1,2.2,1.6C70.5,4.3,71.1,4.3,71.8,4.3z"/>
	<path class="st0" d="M64.8,3.2c0.1,0.1,0.2,0.2,0.3,0.3c0.1,0.1,0.2,0.2,0.4,0.3c0.1,0.1,0.2,0.2,0.4,0.3c0.1,0.1,0.2,0.2,0.4,0.3
		c0.5,0,1,0,1.5,0c-0.2-0.2-0.4-0.3-0.5-0.5c-0.2-0.1-0.4-0.3-0.5-0.4c-0.2-0.1-0.4-0.3-0.5-0.4c-0.2-0.1-0.4-0.3-0.5-0.4
		c-0.5,0-1,0-1.5,0c0.1,0.1,0.2,0.2,0.4,0.3C64.5,3.1,64.6,3.1,64.8,3.2z"/>
	<polygon class="st0" points="125.6,16 123.4,16 123.4,10.5 120.4,10.5 120.4,24.9 123.4,24.9 123.4,18.4 125.6,18.4 125.6,24.9 
		128.6,24.9 128.6,10.5 125.6,10.5 	"/>
	<path class="st0" d="M189.3,5.7c-1.9,0-3.9,0-5.8,0c-1.9,0-3.9,0-5.8,0s-3.9,0-5.8,0c-1.9,0-3.9,0-5.8,0s-3.9,0-5.8,0
		c-1.9,0-3.9,0-5.8,0c-1.9,0-3.9-0.1-5.8,0.1c-0.2,0-0.5,0.1-0.7,0.1c0,0,0,0,0,0c-0.1,0.1-0.2,0-0.2,0c-0.1,0-0.1,0-0.2,0.1
		c-0.2,0-0.3,0-0.5,0.1c-0.1,0.1-0.3,0-0.4,0.1c-0.2,0.1-0.4,0.1-0.5,0.1c-0.2,0.1-0.5,0.1-0.7,0.2c-0.1,0.1-0.3,0.1-0.4,0.2
		c-0.2,0-0.3,0.1-0.5,0.2c-0.3,0.1-0.7,0.3-1,0.5c-0.4,0.2-0.7,0.4-1.1,0.7c-0.3,0.2-0.5,0.4-0.8,0.6c-0.3,0.2-0.6,0.4-0.8,0.6
		c-0.2,0.1-0.3,0.2-0.5,0.4c-0.2-0.4-0.4-0.8-0.6-1.2c0.2-0.1,0.3-0.2,0.5-0.4c0.2-0.1,0.3-0.3,0.5-0.4c0.3-0.2,0.6-0.5,0.9-0.7
		c0.3-0.2,0.6-0.4,0.8-0.6c0.4-0.3,0.8-0.5,1.2-0.7c0.2-0.1,0.4-0.2,0.6-0.3c0.5-0.2,1-0.4,1.5-0.5c0.2,0,0.4-0.1,0.6-0.2
		c0.2-0.1,0.4-0.1,0.6-0.1c0.1,0,0.2,0,0.3-0.1c0.1,0,0.3,0,0.4-0.1c0.3,0,0.5-0.1,0.8-0.1c6.3,0,12.5,0,18.8,0c0.1,0,0.2,0,0.2,0
		c0.8-0.6,1.5-1.1,2.2-1.7c-0.1,0-0.2,0-0.3,0c-0.9,0-1.8,0-2.6,0s-1.8,0-2.6,0c-0.9,0-1.8,0-2.7,0c-0.9,0-1.8,0-2.6,0
		c-0.9,0-1.8,0-2.6,0s-1.8,0-2.6,0c-0.9,0-1.8,0-2.7,0c-0.9,0-1.7-0.1-2.6,0.1c-0.2,0-0.4,0-0.5,0c-0.1,0-0.2,0.1-0.3,0
		c-0.1,0-0.2,0.1-0.3,0.1c-0.1,0-0.3,0-0.4,0c-0.1,0-0.3,0-0.4,0.1c-0.2,0.1-0.3,0-0.5,0.1s-0.4,0.1-0.5,0.2
		c-0.2,0.1-0.4,0.1-0.5,0.2c-0.4,0.2-0.8,0.3-1.3,0.5c-0.3,0.1-0.6,0.3-0.9,0.5c-0.4,0.3-0.9,0.5-1.3,0.8c-0.2,0.2-0.5,0.3-0.7,0.5
		c-0.3,0.3-0.7,0.5-1,0.8c-0.3,0.2-0.5,0.4-0.8,0.6c0,0,0,0,0,0c-3.1-4.4-8.3-7.3-14.1-7.3c-5.8,0-11,2.9-14.1,7.3c0,0,0,0,0,0
		c-0.3-0.2-0.6-0.4-0.8-0.6c-0.3-0.3-0.7-0.5-1-0.8c-0.2-0.2-0.5-0.3-0.7-0.5c-0.4-0.3-0.8-0.6-1.3-0.8c-0.3-0.2-0.6-0.3-0.9-0.5
		c-0.4-0.2-0.8-0.4-1.3-0.5c-0.2-0.1-0.4-0.1-0.5-0.2c-0.2-0.1-0.4-0.1-0.5-0.1c-0.2-0.1-0.3,0-0.5-0.1c-0.1-0.1-0.3,0-0.4-0.1
		c-0.1,0-0.3,0-0.4,0c-0.1,0-0.2-0.1-0.3-0.1c-0.1,0-0.2,0-0.3-0.1c-0.2,0-0.3,0-0.5,0c-0.9-0.1-1.7,0-2.6-0.1c-0.9,0-1.8,0-2.7,0
		c-0.9,0-1.8,0-2.6,0c-0.9,0-1.8,0-2.6,0c-0.9,0-1.8,0-2.6,0c-0.9,0-1.8,0-2.7,0c-0.9,0-1.8,0-2.6,0s-1.8,0-2.6,0
		c-0.1,0-0.2,0-0.3,0c0.8,0.6,1.5,1.1,2.2,1.7c0,0,0.1,0,0.2,0c6.3,0,12.5,0,18.8,0c0.3,0,0.5,0.1,0.8,0.1c0.1,0.1,0.2,0,0.4,0.1
		c0.1,0,0.2,0,0.3,0.1c0.2,0.1,0.4,0.1,0.6,0.1c0.2,0.1,0.4,0.1,0.6,0.2c0.5,0.1,1,0.3,1.5,0.5c0.2,0.1,0.4,0.2,0.6,0.3
		c0.4,0.2,0.8,0.5,1.2,0.7c0.3,0.2,0.6,0.4,0.8,0.6c0.3,0.2,0.6,0.5,0.9,0.7c0.2,0.1,0.3,0.3,0.5,0.4c0.2,0.1,0.3,0.2,0.5,0.4
		c-0.2,0.4-0.4,0.8-0.6,1.2c-0.2-0.1-0.3-0.2-0.5-0.4c-0.3-0.2-0.6-0.4-0.8-0.6c-0.3-0.2-0.5-0.4-0.8-0.6c-0.4-0.3-0.7-0.5-1.1-0.7
		c-0.3-0.2-0.7-0.4-1-0.5c-0.1-0.1-0.3-0.1-0.5-0.2c-0.1,0-0.3-0.1-0.4-0.2c-0.2-0.1-0.5-0.1-0.7-0.2c-0.2-0.1-0.4-0.1-0.5-0.2
		c-0.1-0.1-0.3,0-0.4-0.1c-0.1-0.1-0.3,0-0.5-0.1c-0.1,0-0.1,0-0.2-0.1c-0.1,0-0.2,0-0.2,0c0,0,0,0,0,0c-0.2,0-0.5,0-0.7-0.1
		c-1.9-0.1-3.9,0-5.8-0.1c-1.9,0-3.9,0-5.8,0c-1.9,0-3.9,0-5.8,0s-3.9,0-5.8,0c-1.9,0-3.9,0-5.8,0s-3.9,0-5.8,0c-1.9,0-3.9,0-5.8,0
		c-0.1,0-0.2,0-0.3,0c0,0,0,0.1,0,0.1c0.6,0,1.1,0,1.7,0.1c0.1,0,0.3,0,0.4,0c0.2,0,0.4,0.1,0.7,0.1c0.2,0,0.4,0,0.7,0
		c0.4,0.1,0.8,0,1.2,0.1c0.5,0.1,1.1,0,1.6,0.1c0.4,0.1,0.8,0,1.2,0.1c0.5,0.1,0.9,0,1.4,0.1c0.4,0.1,0.9,0,1.3,0.1
		c0.5,0.1,1,0,1.4,0.1c0.4,0.1,0.8,0,1.2,0.1c0.5,0.1,0.9,0,1.4,0.1c0.4,0.1,0.9,0,1.3,0.1c0.5,0.1,0.9,0,1.4,0.1s0.9,0,1.4,0.1
		c0.4,0.1,0.8,0,1.2,0.1c0.5,0.1,1,0,1.5,0.1c0.4,0.1,0.9,0,1.3,0.1c0.5,0.1,1,0,1.5,0.1C83.5,7,84,6.9,84.4,7
		c0.5,0.1,0.9,0,1.4,0.1c0.4,0.1,0.8,0,1.3,0.1c0.5,0.1,0.9,0,1.4,0.1c0.4,0.1,0.7,0,1,0.1c0.3,0,0.5,0,0.8,0.1c0.3,0,0.6,0,0.8,0
		c0.4,0.1,0.9,0,1.3,0.1c0.1,0,0.3,0,0.4,0.1c0.2,0,0.3,0,0.5,0c0.2,0,0.3,0,0.5,0c0.4,0.1,0.8,0,1.1,0.1c0.3,0.1,0.7,0.1,1,0.1
		c0,0,0,0,0,0.1c-0.1,0-0.2,0-0.3,0c-1,0-2,0-3,0c-0.7,0.1-1.4,0.1-2.1,0.1c-0.7,0-1.4,0-2.1,0c-0.7,0.1-1.5,0-2.2,0
		c-0.8,0-1.5,0-2.2,0c-0.7,0.1-1.3,0-2,0c-0.7,0-1.3,0-2,0c-0.5,0-1,0-1.6,0c-0.5,0-1.1,0-1.6,0c-0.5,0-1.1,0-1.6,0
		c-0.7,0.1-1.3,0-2,0c-0.7,0-1.3,0-2,0C70.9,8.1,70.4,8,70,8c-0.5,0-0.9,0-1.4,0s-0.9,0-1.4,0c-0.3,0-0.6,0.1-0.9,0.1
		c-0.3,0-0.6,0-1,0c0.1,0,0.1,0.1,0.1,0.1c0.6,0,1.2,0,1.8,0c0.6,0.1,1.2,0,1.8,0c0.3,0,0.7,0.1,1,0.1c0.3,0,0.7-0.1,1,0
		c0.3,0.1,0.6,0,1,0s0.7,0,1,0c0.7,0.1,1.3,0,2,0.1c0.6,0.1,1.2,0,1.8,0.1c0.2,0,0.4,0.1,0.7,0.1c0.2,0,0.5,0,0.7,0
		c0.2,0,0.5,0,0.7,0c0.3,0.1,0.5,0.1,0.8,0.1c0.3,0,0.5,0,0.8,0c0.4,0,0.8,0.1,1.2,0.1c0.4,0,0.8-0.1,1.2,0c0.6,0.1,1.1,0,1.7,0.1
		c0.7,0.1,1.4,0,2.1,0.1c0.6,0.1,1.2,0,1.8,0.1c0.3,0,0.7,0,1,0c0.3,0,0.7,0,1,0c0.2,0,0.3,0.1,0.5,0.1s0.3,0,0.5,0s0.3,0,0.5,0
		s0.4,0,0.5,0c0.5,0.1,1.1,0,1.6,0.1c0.7,0.1,1.3,0,2,0.1c0.6,0.1,1.3,0,1.9,0.1c0.6,0.1,1.2,0,1.9,0.1c0,0-0.1,0-0.1,0
		c-1.1,0-2.2,0.1-3.3,0.1c-0.2,0-0.4,0-0.6,0c-0.3,0-0.7,0.1-1,0.1c-0.4,0-0.7,0-1.1,0c-0.3,0-0.7-0.1-1,0c-0.5,0.1-0.9,0-1.4,0.1
		c-0.5,0-0.9,0-1.4,0c-0.5,0.1-1,0-1.5,0s-1,0-1.5,0c-0.5,0.1-0.9,0-1.4,0.1c-0.5,0-1,0-1.4,0c-0.2,0-0.4,0.1-0.5,0.1
		c-0.2,0-0.4,0-0.6,0c-0.2,0-0.4,0-0.6,0c-0.2,0-0.4,0-0.6,0c-0.2,0-0.4,0-0.6,0c-0.5,0.1-1,0-1.5,0.1c-0.5,0-1,0-1.5,0
		c-0.9,0.1-1.8,0-2.7,0.1c-0.1,0-0.3,0.1-0.4,0.1c-0.1,0-0.3,0-0.4,0c0,0,0.1,0,0.1,0c1.1,0,2.3,0.1,3.4,0.1c0.6,0.1,1.2,0,1.8,0.1
		c0.5,0.1,1,0,1.5,0.1c0.7,0.1,1.4,0,2.1,0.1c0.5,0.1,1.1,0,1.6,0.1c0.6,0.1,1.3,0,1.9,0.1c0.6,0.1,1.1,0,1.7,0.1
		c0.3,0,0.6,0.1,0.9,0.1c0.3,0,0.6,0,1,0c0.6,0.1,1.2,0,1.8,0.1c0.5,0.1,1,0,1.6,0.1c0.6,0.1,1.3,0,1.9,0.1c0.6,0.1,1.2,0,1.7,0.1
		c0.6,0.1,1.2,0,1.9,0.1c0.3,0.1,0.5,0.1,0.8,0.1c0.3,0,0.5,0,0.8,0c0.2,0,0.4,0,0.6,0.1c0.2,0,0.4,0,0.7,0s0.4,0,0.7,0
		c0,0,0,0,0.1,0c-0.2,0-0.4,0.1-0.6,0.1c-1.1,0-2.2,0.1-3.4,0.1c-0.6,0.1-1.2,0-1.9,0.1c-0.3,0-0.6,0-0.9,0c-0.3,0-0.6,0-0.9,0
		c-0.7,0.1-1.3,0-2,0.1c-0.6,0.1-1.1,0-1.7,0.1c-0.6,0.1-1.2,0-1.8,0.1c-0.6,0.1-1.3,0-1.9,0.1c-0.6,0.1-1.2,0-1.8,0.1
		c-0.3,0-0.6,0-1,0c-0.3,0-0.7,0-1,0c-0.6,0.1-1.2,0-1.9,0.1c0,0-0.1,0-0.1,0c0,0-0.1,0.1-0.2,0.1c0.1,0,0.1,0,0.2,0
		c1.1,0,2.3,0.1,3.4,0.1c0.6,0.1,1.2,0,1.8,0.1c0.5,0.1,1.1,0,1.6,0.1c0.2,0,0.5,0,0.7,0.1c0.3,0,0.5,0,0.8,0c0.3,0,0.5,0,0.8,0
		c0.5,0.1,1,0,1.5,0.1c0.6,0.1,1.3,0,1.9,0.1c0.6,0.1,1.3,0,1.9,0.1c0.6,0.1,1.2,0,1.8,0.1c0.6,0.1,1.2,0,1.8,0.1
		c0.6,0.1,1.2,0,1.7,0.1c0.7,0.1,1.4,0,2,0.1c0.6,0.1,1.2,0,1.7,0.1c0.2,0,0.4,0.1,0.7,0.1c0,0,0,0,0,0c-0.1,0-0.2,0-0.3,0
		c-0.9,0-1.8,0.1-2.7,0.1c-0.5,0.1-1.1,0-1.6,0.1c-0.4,0.1-0.9,0-1.3,0.1c-0.5,0.1-1,0-1.5,0.1c-0.5,0.1-1.1,0-1.6,0.1
		c-0.5,0.1-1,0-1.5,0.1c-0.5,0.1-1.1,0-1.6,0.1c-0.4,0.1-0.9,0-1.3,0.1c-0.6,0.1-1.2,0-1.7,0.1c-0.5,0.1-0.9,0-1.4,0
		c-0.1,0-0.1,0.1-0.2,0c-0.1,0-0.1,0-0.2,0c-0.1,0-0.1,0-0.2,0c0,0,0.1,0,0.1,0c1,0,1.9,0.1,2.9,0.1c0.6,0.1,1.2,0,1.7,0.1
		c0.4,0.1,0.8,0,1.3,0.1c0.5,0.1,1.1,0,1.6,0.1c0.5,0.1,1,0,1.5,0.1c0.5,0.1,1,0,1.6,0.1c0.5,0.1,1,0,1.5,0.1c0.5,0.1,1,0,1.5,0.1
		c0.5,0.1,1,0,1.5,0.1c0.2,0,0.3,0.1,0.5,0.1c0.2,0,0.3,0,0.5,0c0.2,0,0.4,0,0.5,0c0.4,0.1,0.9,0,1.3,0c0.1,0,0.3,0,0.4,0
		c0,0.1,0,0.2,0,0.3c-0.2,0-0.5,0-0.7,0c-0.4,0.1-0.9,0-1.3,0.1c-0.4,0.1-0.7,0-1.1,0.1c-0.4,0.1-0.9,0-1.3,0.1
		c-0.4,0.1-0.8,0-1.1,0.1c-0.4,0.1-0.9,0-1.3,0.1c-0.4,0.1-0.8,0-1.1,0.1c-0.4,0.1-0.8,0-1.2,0.1c-0.5,0.1-0.9,0-1.4,0.1
		c-0.1,0.1-0.3,0.1-0.5,0.1c0,0,0.1,0.1,0.1,0.1c0,0,0,0,0.1,0c0.1,0,0.2,0,0.3,0c0.6,0,1.1,0.1,1.7,0.1c0.4,0.1,0.8,0,1.2,0.1
		c0.4,0.1,0.9,0,1.3,0.1c0.4,0.1,0.7,0,1.1,0.1c0.2,0,0.5,0.1,0.7,0.1c0.2,0,0.5,0,0.7,0c0.3,0.1,0.6,0,0.9,0.1
		c0.2,0,0.5,0.1,0.7,0.1c0.2,0,0.5,0,0.7,0c0.4,0.1,0.7,0,1.1,0.1c0.1,0,0.1,0,0.2,0c0,0.3,0,0.5,0,0.8c0,0-0.1,0-0.1,0
		c-0.2,0-0.4,0-0.5,0.1c-0.2,0-0.4,0-0.6,0c-0.3,0.1-0.5,0-0.8,0.1c-0.4,0.1-0.7,0-1.1,0.1c-0.2,0-0.3,0-0.5,0.1c0,0,0,0,0.1,0
		c0.5,0,1.1,0,1.6,0.1c0.3,0,0.6,0,0.9,0.1c0.3,0.1,0.6,0,0.8,0.1c0,0,0.1,0,0.1,0c0.1,9.4,7.8,17,17.2,17c9.4,0,17.1-7.6,17.2-17
		c0,0,0.1,0,0.1,0c0.3,0,0.6,0,0.8-0.1c0.3-0.1,0.6,0,0.9-0.1c0.5-0.1,1.1-0.1,1.6-0.1c0,0,0.1,0,0.1,0c-0.2,0-0.3-0.1-0.5-0.1
		c-0.4,0-0.7,0-1.1-0.1c-0.3,0-0.5,0-0.8-0.1c-0.2,0-0.4,0-0.6,0c-0.2,0-0.4,0-0.5-0.1c0,0-0.1,0-0.1,0c0-0.3,0-0.6,0-0.8
		c0.1,0,0.1,0,0.2,0c0.4-0.1,0.7,0,1.1-0.1c0.2-0.1,0.5,0,0.7,0c0.3,0,0.5-0.1,0.7-0.1c0.3,0,0.6,0,0.9,0c0.2-0.1,0.5,0,0.7,0
		c0.2,0,0.5-0.1,0.7-0.1c0.4,0,0.7,0,1.1,0c0.4-0.1,0.9,0,1.3-0.1c0.4-0.1,0.8,0.1,1.2-0.1c0.6,0,1.1-0.1,1.7-0.1c0.1,0,0.2,0,0.3,0
		c0,0,0,0,0.1,0c0,0,0,0,0.1-0.1c-0.2,0-0.4,0-0.5-0.1c-0.5,0-0.9,0-1.4-0.1c-0.4-0.1-0.8,0-1.2-0.1c-0.4-0.1-0.8,0-1.1-0.1
		c-0.4-0.1-0.9,0-1.3-0.1c-0.4-0.1-0.8,0-1.1-0.1c-0.4-0.1-0.9,0-1.3-0.1c-0.4-0.1-0.7,0-1.1-0.1c-0.4-0.1-0.9,0-1.3-0.1
		c-0.2,0-0.5,0-0.7,0c0-0.1,0-0.2,0-0.3c0.1,0,0.3,0,0.4,0c0.4,0,0.9,0.1,1.3,0c0.2,0,0.4,0,0.5,0c0.2,0,0.3,0,0.5,0
		c0.2,0,0.3-0.1,0.5-0.1c0.5,0,1,0,1.5,0c0.5-0.1,1,0,1.5-0.1c0.5-0.1,1,0,1.5-0.1c0.5-0.1,1,0,1.6-0.1c0.5-0.1,1,0,1.5-0.1
		c0.5-0.1,1.1,0,1.6-0.1c0.4-0.1,0.8,0,1.3-0.1c0.6-0.1,1.2,0,1.7-0.1c1,0,1.9-0.1,2.9-0.1c0,0,0.1,0,0.1,0c-0.1,0-0.1,0-0.2,0
		c-0.1,0-0.2-0.1-0.2,0c-0.1,0-0.1,0-0.2,0c-0.5,0-0.9,0-1.4,0c-0.6-0.1-1.2,0-1.7-0.1c-0.4-0.1-0.9,0-1.3-0.1
		c-0.5-0.1-1.1,0-1.6-0.1c-0.5-0.1-1,0-1.5-0.1c-0.5-0.1-1.1,0-1.6-0.1c-0.5-0.1-1,0-1.5-0.1c-0.4-0.1-0.9,0-1.3-0.1
		c-0.5-0.1-1.1,0.1-1.6-0.1c-0.9,0-1.8-0.1-2.7-0.1c-0.1,0-0.2,0-0.3,0c0,0,0,0,0-0.1c0.2,0,0.5,0,0.7-0.1c0.6-0.1,1.2,0,1.7-0.1
		c0.7-0.1,1.3,0,2-0.1c0.6-0.1,1.2,0,1.7-0.1c0.6-0.1,1.2,0,1.8-0.1c0.6-0.1,1.2,0,1.8-0.1c0.6-0.1,1.3,0,1.9-0.1
		c0.6-0.1,1.3,0,1.9-0.1c0.5-0.1,1,0,1.5-0.1c0.2,0,0.5,0,0.8,0c0.3,0,0.5,0,0.8,0c0.2,0,0.5,0,0.7-0.1c0.5,0,1.1,0,1.6-0.1
		c0.6-0.1,1.2,0.1,1.8-0.1c1.1,0,2.3-0.1,3.4-0.1c0.1,0,0.1,0,0.2,0c-0.1,0-0.1-0.1-0.2-0.1c0,0-0.1,0-0.1,0c-0.6,0-1.2,0-1.9-0.1
		c-0.3,0-0.7,0-1,0c-0.3,0-0.6,0-1,0c-0.6-0.1-1.2,0-1.8-0.1c-0.6-0.1-1.3,0-1.9-0.1c-0.6-0.1-1.2,0-1.8-0.1c-0.6-0.1-1.1,0-1.7-0.1
		c-0.7-0.1-1.3,0-2-0.1c-0.3,0-0.6,0-0.9,0c-0.3,0-0.6,0-0.9-0.1c-0.6-0.1-1.2,0.1-1.9-0.1c-1.1,0-2.2-0.1-3.4-0.1
		c-0.2,0-0.4,0-0.6-0.1c0,0,0.1,0,0.1,0c0.2,0,0.4,0,0.7,0c0.2,0,0.4,0,0.7,0c0.2,0,0.4,0,0.6-0.1c0.3,0,0.5,0,0.8,0
		c0.3,0,0.5,0,0.8-0.1c0.6,0,1.2,0,1.9-0.1c0.6-0.1,1.2,0,1.7-0.1c0.6-0.1,1.3,0,1.9-0.1c0.5-0.1,1,0,1.6-0.1c0.6-0.1,1.2,0,1.8-0.1
		c0.3,0,0.6,0,1,0c0.3,0,0.6,0,0.9,0c0.6-0.1,1.1,0,1.7-0.1c0.6-0.1,1.3,0,1.9-0.1c0.5-0.1,1.1,0,1.6-0.1c0.7-0.1,1.4,0,2.1-0.1
		c0.5-0.1,1,0,1.5-0.1c0.6-0.1,1.2,0.1,1.8-0.1c1.1,0,2.3-0.1,3.4-0.1c0,0,0.1,0,0.1,0c-0.1-0.1-0.3-0.1-0.4,0
		c-0.2,0-0.3-0.1-0.4-0.1c-0.9,0-1.8,0-2.7-0.1c-0.5,0-1,0-1.5,0c-0.5,0-1,0-1.5-0.1c-0.2,0-0.4,0-0.6,0s-0.4,0-0.6,0
		c-0.2,0-0.4,0-0.6,0c-0.2,0-0.4,0-0.6,0c-0.2,0-0.4-0.1-0.5-0.1c-0.5,0-1,0-1.4,0c-0.5,0-0.9,0-1.4,0c-0.5-0.1-1,0-1.5,0
		c-0.5,0-1,0-1.5,0c-0.5,0-0.9,0-1.4,0s-0.9,0-1.4,0c-0.3-0.1-0.7,0-1,0c-0.4,0-0.7,0-1.1,0c-0.3,0-0.7-0.1-1-0.1
		c-0.2,0-0.4,0-0.6,0c-1.1,0-2.2-0.1-3.3-0.1c0,0,0,0-0.1,0c0.7-0.1,1.3,0,1.9-0.1c0.6-0.1,1.3,0,1.9-0.1c0.7-0.1,1.3,0,2-0.1
		c0.5-0.1,1.1,0,1.6-0.1c0.2,0,0.3,0,0.5,0c0.2,0,0.3,0,0.5,0c0.2,0,0.3,0,0.5,0c0.2,0,0.3-0.1,0.5-0.1c0.3,0,0.7,0,1,0
		c0.3,0,0.7,0,1,0c0.6-0.1,1.2,0,1.8-0.1c0.7-0.1,1.4,0,2.1-0.1c0.6-0.1,1.1,0,1.7-0.1c0.4-0.1,0.8,0,1.2,0c0.4,0,0.8-0.1,1.2-0.1
		c0.3,0,0.5,0,0.8,0c0.3,0,0.5,0,0.8,0c0.2,0,0.4,0,0.7,0c0.2,0,0.4,0,0.7,0c0.2,0,0.4-0.1,0.7-0.1c0.6,0,1.2,0,1.8,0
		c0.7-0.1,1.3,0,2-0.1c0.3,0,0.7,0,1,0c0.3,0,0.6,0,1,0c0.3-0.1,0.7,0,1,0c0.3,0,0.7-0.1,1-0.1c0.6,0,1.2,0,1.8-0.1
		c0.6-0.1,1.2,0,1.8,0c0,0,0,0,0.1-0.1c-0.4,0-0.7,0-1,0c-0.3,0-0.6,0-0.9-0.1c-0.5,0-0.9,0-1.4,0c-0.5,0-0.9,0-1.4,0
		c-0.5,0-0.9,0.1-1.4-0.1c-0.7,0-1.3,0-2,0s-1.3,0-2,0c-0.5-0.1-1.1,0-1.6,0c-0.5,0-1.1,0-1.6,0c-0.5,0-1,0-1.6,0
		c-0.7-0.1-1.3,0-2,0c-0.7,0-1.3,0-2,0c-0.7-0.1-1.5,0-2.2,0c-0.7,0-1.5,0-2.2,0c-0.7-0.1-1.4,0-2.1,0c-0.7,0-1.4,0.1-2.1-0.1
		c-1,0-2,0-3,0c-0.1,0-0.2,0-0.3,0c0,0,0,0,0-0.1c0.3,0,0.7,0,1-0.1c0.4-0.1,0.8,0,1.1-0.1c0.1,0,0.3,0,0.5,0c0.2,0,0.3,0,0.5,0
		c0.1,0,0.3-0.1,0.4-0.1c0.4,0,0.9,0,1.3-0.1c0.3-0.1,0.6,0,0.8,0c0.3,0,0.5,0,0.8-0.1c0.4,0,0.7,0,1-0.1c0.5-0.1,0.9,0,1.4-0.1
		c0.4-0.1,0.8,0,1.3-0.1c0.4-0.1,0.9,0,1.4-0.1c0.4-0.1,0.8,0,1.3-0.1c0.5-0.1,1,0,1.5-0.1c0.4-0.1,0.9,0,1.3-0.1
		c0.5-0.1,1,0,1.5-0.1c0.4-0.1,0.8,0,1.2-0.1c0.4-0.1,0.9,0,1.4-0.1c0.5-0.1,0.9,0,1.4-0.1c0.4-0.1,0.9,0,1.3-0.1
		c0.5-0.1,0.9,0,1.4-0.1c0.4-0.1,0.8,0,1.2-0.1c0.5-0.1,0.9,0,1.4-0.1c0.4-0.1,0.9,0,1.3-0.1c0.4-0.1,0.9,0,1.4-0.1
		c0.4-0.1,0.8,0,1.2-0.1c0.5-0.1,1.1,0,1.6-0.1c0.4-0.1,0.8,0,1.2-0.1c0.2,0,0.4,0,0.7,0c0.2,0,0.4-0.1,0.7-0.1c0.1,0,0.3,0,0.4,0
		c0.6,0,1.1,0,1.7-0.1c0,0,0,0,0-0.1C189.4,5.7,189.4,5.7,189.3,5.7z M139.8,16.7c-0.1,0-0.3,0-0.4,0c-0.3-0.1-0.6,0-1-0.1
		c-0.3,0-0.6,0.1-0.9-0.1c-0.4,0.1-0.8-0.1-1.2-0.1c-0.2,0-0.3,0-0.5,0c0,0,0,0-0.1,0c0,0,0-0.1,0-0.1c0.4,0,0.8,0,1.2-0.1
		c0.4-0.1,0.9,0,1.3-0.1c0.4-0.1,0.8,0,1.2-0.1c0.1,0,0.2,0,0.3,0C139.8,16.3,139.8,16.5,139.8,16.7z M139.2,14.6c0.1,0,0.2,0,0.3,0
		c0,0,0,0.1,0,0.1c-0.1,0-0.1,0-0.2,0C139.3,14.7,139.2,14.7,139.2,14.6C139.2,14.6,139.2,14.6,139.2,14.6z M109.9,14.6
		C109.9,14.6,109.9,14.6,109.9,14.6c0,0.1-0.1,0.1-0.1,0.1c-0.1,0-0.1,0-0.2,0c0,0,0-0.1,0-0.1C109.6,14.6,109.7,14.6,109.9,14.6z
		 M109.3,16.1c0.1,0,0.2,0,0.3,0c0.4,0.1,0.8,0,1.2,0.1c0.4,0.1,0.9,0,1.3,0.1c0.4,0.1,0.8,0,1.2,0.1c0,0,0,0,0,0.1c0,0,0,0-0.1,0
		c-0.2,0-0.3,0-0.5,0c-0.4,0-0.8,0.1-1.2,0.1c-0.3,0.1-0.6,0-0.9,0.1c-0.3,0.1-0.6,0-1,0.1c-0.1,0-0.3,0-0.4,0
		C109.3,16.5,109.3,16.3,109.3,16.1z M124.5,32.4c-8.3,0-15-6.6-15.2-14.8c0,0,0.1,0,0.1,0c0.2,0,0.3,0,0.5,0c0.3,0.1,0.5,0,0.7,0.1
		c0.2,0,0.4,0,0.5,0.1c0.2,0,0.4,0,0.5,0c0.3,0.1,0.6,0,0.8,0.1c0.3,0.1,0.7,0,1,0.1c0.3,0,0.6,0,0.8,0.1c0.3,0.1,0.6,0,1,0.1
		c0.3,0.1,0.6,0,0.9,0.1c0.3,0.1,0.6,0,0.9,0.1c0.5,0.1,1,0,1.5,0c0.4,0,0.8,0,1.2,0v-0.3c-0.2-0.2-0.5-0.3-0.7-0.5
		c-0.4-0.3-0.8-0.6-1.2-1c-0.2-0.2-0.4-0.3-0.6-0.4c-0.3-0.2-0.6-0.5-0.9-0.7c-0.3-0.2-0.6-0.4-0.8-0.6c-0.4-0.3-0.8-0.5-1.1-0.8
		c-0.2-0.2-0.4-0.3-0.6-0.5c-0.3-0.2-0.6-0.5-0.9-0.7c-0.4-0.3-0.8-0.6-1.1-0.8c-0.3-0.2-0.6-0.5-0.9-0.7c-0.1-0.1-0.2-0.1-0.3-0.2
		c0.2-0.4,0.4-0.8,0.6-1.2c0.2,0.1,0.4,0.3,0.6,0.4c0.4,0.3,0.9,0.6,1.3,1c0.4,0.3,0.8,0.6,1.1,0.9c0.3,0.3,0.7,0.5,1,0.8
		c0.3,0.2,0.6,0.5,1,0.7c0.3,0.2,0.6,0.4,0.8,0.6c0.3,0.2,0.6,0.4,0.8,0.6c0.4,0.3,0.7,0.5,1.1,0.8c0.2,0.2,0.4,0.3,0.6,0.5
		c0.1,0.1,0.2,0.2,0.3,0.3v-1.9c0,0-0.1-0.1-0.1-0.1c-0.2-0.2-0.4-0.4-0.7-0.5c-0.3-0.2-0.6-0.4-0.8-0.6c-0.3-0.2-0.6-0.4-0.9-0.7
		c-0.3-0.2-0.6-0.4-0.8-0.6c-0.2-0.2-0.4-0.3-0.6-0.5c-0.3-0.2-0.6-0.5-0.9-0.7c-0.2-0.2-0.5-0.3-0.7-0.5c-0.2-0.2-0.5-0.3-0.7-0.5
		c-0.5-0.4-1-0.7-1.4-1.1c-0.1,0-0.1-0.1-0.2-0.1c2.8-3.9,7.3-6.5,12.5-6.5c5.2,0,9.7,2.6,12.5,6.5c-0.1,0-0.1,0.1-0.2,0.1
		c-0.5,0.4-0.9,0.7-1.4,1.1c-0.2,0.2-0.5,0.4-0.7,0.5c-0.2,0.2-0.5,0.4-0.7,0.5c-0.3,0.2-0.6,0.4-0.9,0.7c-0.2,0.2-0.4,0.3-0.6,0.5
		c-0.3,0.2-0.5,0.4-0.8,0.6c-0.3,0.2-0.6,0.4-0.9,0.7c-0.3,0.2-0.6,0.4-0.8,0.6c-0.2,0.2-0.4,0.3-0.7,0.5c0,0-0.1,0.1-0.1,0.1v1.9
		c0.1-0.1,0.2-0.2,0.4-0.3c0.2-0.2,0.4-0.3,0.6-0.5c0.4-0.3,0.7-0.5,1.1-0.8c0.3-0.2,0.6-0.4,0.8-0.6c0.3-0.2,0.5-0.4,0.8-0.6
		c0.3-0.3,0.6-0.5,1-0.7c0.4-0.3,0.7-0.5,1-0.8c0.4-0.3,0.8-0.6,1.1-0.9c0.4-0.3,0.8-0.7,1.3-1c0.2-0.1,0.4-0.3,0.6-0.4
		c0.2,0.4,0.4,0.8,0.6,1.2c-0.1,0.1-0.2,0.1-0.3,0.2c-0.3,0.3-0.6,0.5-0.9,0.7c-0.4,0.3-0.8,0.6-1.1,0.8c-0.3,0.2-0.6,0.5-0.9,0.7
		c-0.2,0.2-0.4,0.3-0.6,0.5c-0.4,0.3-0.7,0.5-1.1,0.8c-0.3,0.2-0.6,0.4-0.8,0.6c-0.3,0.2-0.6,0.5-0.9,0.7c-0.2,0.2-0.4,0.3-0.6,0.5
		c-0.4,0.3-0.8,0.6-1.2,1c-0.2,0.2-0.5,0.4-0.7,0.5v0.3c0.4,0,0.8,0,1.2,0c0.5,0,1,0.1,1.5,0c0.3-0.1,0.6,0,0.9-0.1
		c0.3-0.1,0.6,0,0.9-0.1c0.3-0.1,0.6,0,1-0.1c0.3-0.1,0.5,0,0.8-0.1c0.3-0.1,0.7,0,1-0.1c0.3-0.1,0.5,0,0.8-0.1c0.2,0,0.4,0,0.5,0
		c0.2,0,0.4,0,0.5-0.1c0.2,0,0.5,0,0.7-0.1c0.1,0,0.3,0,0.5,0c0,0,0.1,0,0.1,0C139.5,25.8,132.8,32.4,124.5,32.4z"/>
</g>
</svg>
