<?xml version="1.0" encoding="utf-8"?>
<!-- Generator: Adobe Illustrator 23.0.3, SVG Export Plug-In . SVG Version: 6.00 Build 0)  -->
<svg version="1.1" id="Шар_1" xmlns="http://www.w3.org/2000/svg" xmlns:xlink="http://www.w3.org/1999/xlink" x="0px" y="0px"
	 viewBox="0 0 100 100" style="enable-background:new 0 0 100 100;" xml:space="preserve">
<style type="text/css">
	.st0{fill:#1876F1;}
	.st1{fill:#FDFDFE;}
</style>
<path class="st0" d="M100,46.5c0,2,0,4,0,6.1c-1,0,0,1,0,1c0,2,0,4-1,5c-2,9.1-6.1,17.2-12.1,24.2C78.8,91.9,68.7,97,57.6,99
	c0-11.1,0-23.2,0-34.3c0-1,0-1,1-1c3,0,7.1,0,10.1,0c0,0,1,0,1-1c1-5,1-9.1,2-14.1h-1c-4,0-8.1,0-12.1,0c-1,0-1,0-1-1
	c0-3,0-6.1,0-9.1c0-1,0-2,1-3c1-3,3-4,6.1-4c2,0,5,0,7.1,0c0,0,1,0,1-1c0-4,0-7.1,0-11.1c0,0,0-1-1-1c-5-1-10.1-1-14.1-1
	c-6.1,1-10.1,3-13.1,8.1c-2,3-2,7.1-2,10.1c0,4,0,7.1,0,11.1c0,1,0,1-1,1c-4,0-7.1,0-11.1,0c-1,0-1,0-1,1c0,4,0,8.1,0,13.1
	c0,1,0,1,1,1c4,0,7.1,0,11.1,0c1,0,1,0,1,1c0,11.1,0,23.2,0,34.3c-1,0-1,0-2,0C24.3,95,13.2,85.9,5.1,71.7c-3-6.1-5-12.1-5-19.2v-1
	c0-2,0-3,0-5c0,0,0,0,0-1c0-2,0-4,1-6.1c3-16.1,12.1-27.2,26.2-35.3c6.1-3,12.1-5,19.2-5h1c2,0,3,0,5,0c0,0,0,0,1,0c2,0,4,0,6.1,1
	c18.2,4,31.3,15.1,37.3,33.3C99,37.4,99,41.5,100,46.5C100,46.5,99,46.5,100,46.5z"/>
<path class="st1" d="M41.5,99c0-11.1,0-23.2,0-34.3c0-1,0-1-1-1c-4,0-7.1,0-11.1,0c-1,0-1,0-1-1c0-4,0-8.1,0-13.1c0-1,0-1,1-1
	c4,0,7.1,0,11.1,0c1,0,1,0,1-1c0-4,0-7.1,0-11.1c0-4,1-7.1,2-10.1c3-5,7.1-8.1,13.1-8.1c5-1,10.1,0,14.1,1c0,0,1,0,1,1
	c0,4,0,7.1,0,11.1c0,1,0,1-1,1c-2,0-5,0-7.1,0c-3,0-5,1-6.1,4c0,1-1,2-1,3c0,3,0,6.1,0,9.1c0,1,0,1,1,1c4,0,8.1,0,12.1,0h1
	c-1,5-1,9.1-2,14.1c0,1-1,1-1,1c-3,0-7.1,0-10.1,0c-1,0-1,0-1,1c0,11.1,0,23.2,0,34.3c-1,0-3,0-4,1h-1c-2,0-4,0-6.1,0c0-1,0,0-1,0
	C44.5,100,43.5,99,41.5,99z"/>
</svg>
