<?xml version="1.0" encoding="utf-8"?>
<!-- Generator: Adobe Illustrator 23.0.3, SVG Export Plug-In . SVG Version: 6.00 Build 0)  -->
<svg version="1.1" id="Шар_1" xmlns="http://www.w3.org/2000/svg" xmlns:xlink="http://www.w3.org/1999/xlink" x="0px" y="0px"
	 viewBox="0 0 100 100" style="enable-background:new 0 0 100 100;" xml:space="preserve">
<style type="text/css">
	.st0{fill:url(#SVGID_1_);}
	.st1{fill:url(#SVGID_2_);}
	.st2{fill:url(#SVGID_3_);}
</style>
<linearGradient id="SVGID_1_" gradientUnits="userSpaceOnUse" x1="0.1577" y1="50" x2="100.1577" y2="50">
	<stop  offset="0" style="stop-color:#FBC86C"/>
	<stop  offset="0.3358" style="stop-color:#EB594C"/>
	<stop  offset="0.6978" style="stop-color:#BA3787"/>
	<stop  offset="1" style="stop-color:#586BAD"/>
</linearGradient>
<path class="st0" d="M25.7,0C42,0,58.3,0,74.5,0c0.3,0.1,0.6,0.1,0.9,0.2c2.7,0.3,5.4,0.9,7.9,2.1c10.8,5,16.6,13.5,16.7,25.4
	c0.2,14.8,0.1,29.7,0,44.5c0,5.8-1.6,11.1-4.9,15.8c-5.6,8-13.4,11.9-23.1,12c-14.6,0-29.2,0-43.7,0c-1.9,0-3.8-0.1-5.6-0.5
	C11.3,97,4.1,90.1,1,78.9c-0.4-1.5-0.5-3-0.8-4.5c0-16.3,0-32.5,0-48.8c0.2-1,0.3-2.1,0.5-3.1C3.2,11.2,10.1,3.9,21.2,0.8
	C22.7,0.4,24.2,0.3,25.7,0z M91.2,50.1c0-7.3,0-14.5,0-21.8c0-2.3-0.2-4.5-1-6.7C87.4,13.7,80.6,8.9,72,8.9c-14.6,0-29.1,0-43.7,0
	c-2.2,0-4.4,0.3-6.5,1C13.8,12.6,9,19.6,9,28.2c0,14.6,0,29.1,0,43.6c0,2.2,0.3,4.4,1,6.5c2.7,8,9.6,12.8,18.1,12.8
	c14.6,0,29.3,0,43.9,0c6.5,0,11.8-2.6,15.6-7.9c2.5-3.4,3.5-7.3,3.5-11.5C91.2,64.5,91.2,57.3,91.2,50.1z"/>
<linearGradient id="SVGID_2_" gradientUnits="userSpaceOnUse" x1="20.413" y1="50.0574" x2="79.8839" y2="50.0574">
	<stop  offset="0" style="stop-color:#FBC86C"/>
	<stop  offset="0.3358" style="stop-color:#EB594C"/>
	<stop  offset="0.6978" style="stop-color:#BA3787"/>
	<stop  offset="1" style="stop-color:#586BAD"/>
</linearGradient>
<path class="st1" d="M50.1,79.8C33.8,79.7,20.3,66.3,20.4,50c0-16.4,13.5-29.8,29.8-29.7c16.4,0,29.7,13.4,29.7,29.7
	S66.5,79.8,50.1,79.8z M69.6,50c0.1-10.7-8.7-19.5-19.4-19.5s-19.4,8.7-19.5,19.4c0,10.7,8.7,19.5,19.4,19.5
	C60.8,69.5,69.5,60.9,69.6,50z"/>
<linearGradient id="SVGID_3_" gradientUnits="userSpaceOnUse" x1="73.6454" y1="18.9947" x2="88.6629" y2="18.9947">
	<stop  offset="0" style="stop-color:#FBC86C"/>
	<stop  offset="0.3358" style="stop-color:#EB594C"/>
	<stop  offset="0.6978" style="stop-color:#BA3787"/>
	<stop  offset="1" style="stop-color:#586BAD"/>
</linearGradient>
<path class="st2" d="M81.2,11.5c4.2,0,7.6,3.5,7.5,7.5c-0.1,4-3.5,7.4-7.5,7.4c-4.2,0-7.6-3.5-7.5-7.5C73.8,14.9,77,11.5,81.2,11.5z
	"/>
</svg>
